HIERARCHY
ROOT hip
{
	OFFSET 0.000000 0.000000 0.000000
	CHANNELS 6 Xposition Yposition Zposition Xrotation Zrotation Yrotation 
	JOINT abdomen
	{
		OFFSET 0.000000 3.422050 0.000000
		CHANNELS 3 Xrotation Zrotation Yrotation 
		JOINT chest
		{
			OFFSET 0.000000 8.486693 -0.684411
			CHANNELS 3 Xrotation Zrotation Yrotation 
			JOINT neck
			{
				OFFSET 0.000000 10.266162 -0.273764
				CHANNELS 3 Xrotation Zrotation Yrotation 
				JOINT head
				{
					OFFSET 0.000000 3.148285 0.000000
					CHANNELS 3 Xrotation Zrotation Yrotation 
					End Site
					{
						OFFSET 0.000000 3.148289 0.000000
					}
				}
			}
			JOINT lCollar
			{
				OFFSET 3.422053 6.707223 -0.821293
				CHANNELS 3 Yrotation Zrotation Xrotation 
				JOINT lShldr
				{
					OFFSET 3.285171 0.000000 0.000000
					CHANNELS 3 Zrotation Yrotation Xrotation 
					JOINT lForeArm
					{
						OFFSET 10.129278 0.000000 0.000000
						CHANNELS 3 Yrotation Zrotation Xrotation 
						JOINT lHand
						{
							OFFSET 8.486692 0.000000 0.000000
							CHANNELS 3 Zrotation Yrotation Xrotation 
							End Site
							{
								OFFSET 4.106464 0.000000 0.000000
							}
						}
					}
				}
			}
			JOINT rCollar
			{
				OFFSET -3.558935 6.707223 -0.821293
				CHANNELS 3 Yrotation Zrotation Xrotation 
				JOINT rShldr
				{
					OFFSET -3.148289 0.000000 0.000000
					CHANNELS 3 Zrotation Yrotation Xrotation 
					JOINT rForeArm
					{
						OFFSET -10.266159 0.000000 0.000000
						CHANNELS 3 Yrotation Zrotation Xrotation 
						JOINT rHand
						{
							OFFSET -8.349810 0.000000 0.000000
							CHANNELS 3 Zrotation Yrotation Xrotation 
							End Site
							{
								OFFSET -4.106464 0.000000 0.000000
							}
						}
					}
				}
			}
		}
	}
	JOINT lThigh
	{
		OFFSET 5.338403 -1.642589 1.368821
		CHANNELS 3 Xrotation Zrotation Yrotation 
		JOINT lShin
		{
			OFFSET -2.053232 -20.121670 0.000000
			CHANNELS 3 Xrotation Zrotation Yrotation 
			JOINT lFoot
			{
				OFFSET 0.000000 -19.300380 -1.231939
				CHANNELS 3 Xrotation Yrotation Zrotation 
				End Site
				{
					OFFSET 0.000000 -2.463878 4.653993
				}
			}
		}
	}
	JOINT rThigh
	{
		OFFSET -5.338403 -1.642589 1.368821
		CHANNELS 3 Xrotation Zrotation Yrotation 
		JOINT rShin
		{
			OFFSET 2.053232 -20.121670 0.000000
			CHANNELS 3 Xrotation Zrotation Yrotation 
			JOINT rFoot
			{
				OFFSET 0.000000 -19.300380 -1.231939
				CHANNELS 3 Xrotation Yrotation Zrotation 
				End Site
				{
					OFFSET 0.000000 -2.463878 4.653993
				}
			}
		}
	}
}
MOTION
Frames: 18
Frame Time: 0.033331
0.000000 43.528500 0.000000 0.000000 0.000000 0.000000 0.000000 0.000000 0.000000 0.000000 0.000000 0.000000 0.000000 0.000000 0.000000 0.000000 0.000000 0.000000 0.000000 0.000000 0.000000 0.000000 0.000000 0.000000 0.000000 0.000000 0.000000 0.000000 0.000000 0.000000 0.000000 0.000000 0.000000 0.000000 0.000000 0.000000 0.000000 0.000000 0.000000 0.000000 0.000000 0.000000 0.000000 0.000000 0.000000 0.000000 0.000000 0.000000 0.000000 0.000000 0.000000 0.000000 0.000000 0.000000 0.000000 0.000000 0.000000 0.000000 0.000000 0.000000 
0.000000 31.931072 12.162140 0.000000 0.000000 0.000000 -10.002190 0.000000 0.000000 -10.002190 0.000000 0.000000 4.997208 0.000000 0.000000 -5.000705 0.000000 0.000000 9.982098 -5.381933 9.982098 -69.991104 34.066437 -5.392090 -41.730934 2.804566 9.952079 11.196977 14.317631 30.346189 -9.995106 9.230547 7.819879 65.351059 -37.486092 -12.256928 43.359539 2.007143 9.999390 -10.598143 -11.656831 35.321381 -26.692892 15.227251 1.016673 35.028526 0.897361 0.160338 -6.619587 0.124560 -26.531336 -26.659857 -15.277330 -1.110778 35.280819 -0.875782 -0.067491 -6.484542 0.125500 26.554621 
0.000000 31.931072 12.162140 0.249874 0.000000 0.000000 -10.252030 0.000000 0.000000 -10.002190 0.000000 0.000000 4.997208 0.000000 0.000000 -5.500740 0.000000 0.000000 9.982009 -5.380805 9.982362 -69.992737 34.066994 -5.394428 -41.729916 2.806169 9.952239 11.195516 14.318153 30.346998 -9.995441 9.230374 7.821749 65.350967 -37.486183 -12.258307 43.359074 2.008132 9.999986 -10.597015 -11.657223 35.320702 -27.018747 15.208521 0.957004 35.027950 0.896494 0.160638 -6.617000 0.128303 -26.531279 -26.983831 -15.258235 -1.051716 35.280434 -0.875782 -0.067488 -6.482156 0.123388 26.555037 
0.000000 31.931072 12.162140 0.499758 0.000000 0.000000 -10.501878 0.000000 0.000000 -10.002190 0.000000 0.000000 4.997208 0.000000 0.000000 -6.000848 0.000000 0.000000 9.981919 -5.379675 9.982624 -69.994362 34.067551 -5.396767 -41.728886 2.807771 9.952398 11.194053 14.318673 30.347809 -9.995775 9.230200 7.823618 65.350845 -37.486259 -12.259682 43.358601 2.009120 10.000580 -10.595885 -11.657613 35.320011 -27.344564 15.189456 0.897449 35.027370 0.895626 0.160939 -6.614412 0.132046 -26.531218 -27.307777 -15.238820 -0.992768 35.280045 -0.875782 -0.067485 -6.479769 0.121276 26.555449 
0.000000 31.931072 12.162140 0.749648 0.000000 0.000000 -10.751734 0.000000 0.000000 -10.002190 0.000000 0.000000 4.997208 0.000000 0.000000 -6.501017 0.000000 0.000000 9.981832 -5.378547 9.982887 -69.995995 34.068108 -5.399105 -41.727871 2.809373 9.952559 11.192591 14.319196 30.348618 -9.996111 9.230025 7.825489 65.350754 -37.486355 -12.261061 43.358135 2.010108 10.001176 -10.594758 -11.658005 35.319332 -27.670351 15.170071 0.838009 35.026787 0.894759 0.161239 -6.611825 0.135789 -26.531160 -27.631687 -15.219082 -0.933939 35.279663 -0.875783 -0.067482 -6.477382 0.119164 26.555861 
0.000000 31.931072 12.162140 0.999544 0.000000 0.000000 -11.001595 0.000000 0.000000 -10.002190 0.000000 0.000000 4.997208 0.000000 0.000000 -7.001222 0.000000 0.000000 9.981743 -5.377418 9.983150 -69.997612 34.068661 -5.401442 -41.726845 2.810976 9.952717 11.191128 14.319717 30.349424 -9.996445 9.229853 7.827358 65.350639 -37.486431 -12.262437 43.357670 2.011096 10.001770 -10.593629 -11.658394 35.318649 -27.996101 15.150358 0.778688 35.026203 0.893891 0.161540 -6.609236 0.139531 -26.531101 -27.955549 -15.199020 -0.875230 35.279278 -0.875783 -0.067479 -6.474995 0.117052 26.556274 
0.000000 31.931072 12.162140 1.249441 0.000000 0.000000 -11.251456 0.000000 0.000000 -10.002190 0.000000 0.000000 4.997208 0.000000 0.000000 -7.501448 0.000000 0.000000 9.981655 -5.376289 9.983415 -69.999245 34.069221 -5.403783 -41.725822 2.812578 9.952877 11.189666 14.320240 30.350237 -9.996779 9.229678 7.829228 65.350548 -37.486523 -12.263815 43.357204 2.012084 10.002366 -10.592501 -11.658786 35.317970 -28.321802 15.130319 0.719489 35.025627 0.893024 0.161840 -6.606648 0.143275 -26.531044 -28.279369 -15.178639 -0.816643 35.278889 -0.875783 -0.067476 -6.472609 0.114940 26.556690 
0.000000 31.931072 12.162140 1.499339 0.000000 0.000000 -11.501319 0.000000 0.000000 -10.002190 0.000000 0.000000 4.997208 0.000000 0.000000 -8.001673 0.000000 0.000000 9.981566 -5.375160 9.983678 -70.000877 34.069775 -5.406121 -41.724804 2.814181 9.953036 11.188205 14.320762 30.351046 -9.997114 9.229505 7.831098 65.350441 -37.486607 -12.265191 43.356735 2.013073 10.002961 -10.591372 -11.659176 35.317284 -28.647446 15.109955 0.660414 35.025047 0.892156 0.162141 -6.604061 0.147017 -26.530989 -28.603132 -15.157940 -0.758183 35.278503 -0.875783 -0.067473 -6.470222 0.112828 26.557104 
0.000000 31.931072 12.162140 1.749235 0.000000 0.000000 -11.751183 0.000000 0.000000 -10.002190 0.000000 0.000000 4.997208 0.000000 0.000000 -8.501877 0.000000 0.000000 9.981476 -5.374031 9.983940 -70.002510 34.070332 -5.408461 -41.723778 2.815783 9.953196 11.186741 14.321280 30.351852 -9.997448 9.229330 7.832968 65.350334 -37.486694 -12.266570 43.356270 2.014061 10.003556 -10.590243 -11.659568 35.316601 -28.973034 15.089266 0.601467 35.024467 0.891289 0.162441 -6.601473 0.150760 -26.530928 -28.926842 -15.136924 -0.699851 35.278118 -0.875784 -0.067470 -6.467835 0.110716 26.557516 
0.000000 31.931072 12.162140 1.999125 0.000000 0.000000 -12.001037 0.000000 0.000000 -10.002190 0.000000 0.000000 4.997208 0.000000 0.000000 -9.002046 0.000000 0.000000 9.981388 -5.372903 9.984204 -70.004135 34.070885 -5.410799 -41.722759 2.817386 9.953356 11.185279 14.321803 30.352665 -9.997784 9.229156 7.834838 65.350235 -37.486782 -12.267948 43.355804 2.015049 10.004151 -10.589116 -11.659959 35.315922 -29.298557 15.068256 0.542650 35.023888 0.890421 0.162742 -6.598886 0.154503 -26.530872 -29.250481 -15.115588 -0.641651 35.277733 -0.875784 -0.067467 -6.465448 0.108604 26.557932 
0.000000 31.931072 12.162140 2.249009 0.000000 0.000000 -12.250885 0.000000 0.000000 -10.002190 0.000000 0.000000 4.997208 0.000000 0.000000 -9.502156 0.000000 0.000000 9.981299 -5.371774 9.984468 -70.005768 34.071449 -5.413140 -41.721745 2.818989 9.953516 11.183818 14.322326 30.353474 -9.998119 9.228983 7.836708 65.350128 -37.486874 -12.269326 43.355335 2.016037 10.004747 -10.587988 -11.660351 35.315239 -29.624012 15.046924 0.483966 35.023312 0.889554 0.163043 -6.596299 0.158246 -26.530819 -29.574051 -15.093938 -0.583585 35.277351 -0.875784 -0.067464 -6.463062 0.106492 26.558350 
0.000000 31.931072 12.162140 2.498883 0.000000 0.000000 -12.500726 0.000000 0.000000 -10.002190 0.000000 0.000000 4.997208 0.000000 0.000000 -10.002190 0.000000 0.000000 9.981211 -5.370645 9.984731 -70.007385 34.072002 -5.415477 -41.720718 2.820591 9.953674 11.182355 14.322848 30.354280 -9.998453 9.228809 7.838578 65.350021 -37.486954 -12.270701 43.354870 2.017026 10.005342 -10.586859 -11.660741 35.314556 -29.949392 15.025274 0.425418 35.022732 0.888687 0.163343 -6.593711 0.161989 -26.530760 -29.897549 -15.071972 -0.525656 35.276962 -0.875784 -0.067461 -6.460675 0.104380 26.558762 
0.000000 31.931072 12.162140 2.248634 0.000000 0.000000 -12.250816 0.000000 0.000000 -10.002190 0.000000 0.000000 4.997208 0.000000 0.000000 -9.502182 0.000000 0.000000 9.981122 -5.369516 9.984994 -70.009018 34.072559 -5.417816 -41.719696 2.822194 9.953834 11.180894 14.323370 30.355089 -9.998787 9.228635 7.840448 65.349915 -37.487038 -12.272077 43.354401 2.018014 10.005938 -10.585731 -11.661131 35.313869 -29.623428 15.047414 0.483045 35.022152 0.887819 0.163644 -6.591123 0.165732 -26.530704 -29.572308 -15.093929 -0.583718 35.276577 -0.875785 -0.067458 -6.458289 0.102268 26.559175 
0.000000 31.931072 12.162140 1.998376 0.000000 0.000000 -12.000902 0.000000 0.000000 -10.002190 0.000000 0.000000 4.997208 0.000000 0.000000 -9.002107 0.000000 0.000000 9.981032 -5.368387 9.985257 -70.010651 34.073116 -5.420154 -41.718674 2.823796 9.953994 11.179431 14.323891 30.355898 -9.999123 9.228461 7.842318 65.349815 -37.487129 -12.273456 43.353935 2.019002 10.006534 -10.584602 -11.661523 35.313190 -29.297394 15.069240 0.540812 35.021568 0.886952 0.163944 -6.588535 0.169475 -26.530645 -29.247000 -15.115576 -0.641916 35.276184 -0.875785 -0.067456 -6.455902 0.100156 26.559591 
0.000000 31.931072 12.162140 1.748112 0.000000 0.000000 -11.750980 0.000000 0.000000 -10.002190 0.000000 0.000000 4.997208 0.000000 0.000000 -8.501983 0.000000 0.000000 9.980945 -5.367259 9.985520 -70.012276 34.073669 -5.422493 -41.717651 2.825398 9.954153 11.177969 14.324413 30.356709 -9.999456 9.228288 7.844187 65.349716 -37.487217 -12.274834 43.353470 2.019990 10.007130 -10.583474 -11.661914 35.312508 -28.971289 15.090747 0.598713 35.020992 0.886084 0.164245 -6.585948 0.173218 -26.530592 -28.921610 -15.136898 -0.700250 35.275799 -0.875785 -0.067453 -6.453515 0.098044 26.560005 
0.000000 31.931072 12.162140 1.497846 0.000000 0.000000 -11.501057 0.000000 0.000000 -10.002190 0.000000 0.000000 4.997208 0.000000 0.000000 -8.001835 0.000000 0.000000 9.980856 -5.366130 9.985785 -70.013908 34.074226 -5.424832 -41.716633 2.827001 9.954312 11.176507 14.324935 30.357517 -9.999791 9.228114 7.846057 65.349602 -37.487301 -12.276210 43.353001 2.020979 10.007725 -10.582345 -11.662304 35.311821 -28.645121 15.111938 0.656748 35.020409 0.885217 0.164545 -6.583361 0.176961 -26.530537 -28.596169 -15.157903 -0.758714 35.275417 -0.875785 -0.067450 -6.451128 0.095932 26.560423 
0.000000 31.931072 12.162140 1.247577 0.000000 0.000000 -11.251130 0.000000 0.000000 -10.002190 0.000000 0.000000 4.997208 0.000000 0.000000 -7.501673 0.000000 0.000000 9.980767 -5.365001 9.986048 -70.015541 34.074783 -5.427172 -41.715611 2.828604 9.954472 11.175045 14.325458 30.358326 -10.000126 9.227940 7.847928 65.349510 -37.487389 -12.277589 43.352535 2.021966 10.008319 -10.581217 -11.662695 35.311142 -28.318893 15.132807 0.714913 35.019833 0.884349 0.164846 -6.580773 0.180704 -26.530481 -28.270668 -15.178586 -0.817308 35.275028 -0.875785 -0.067447 -6.448741 0.093820 26.560837 
0.000000 31.931072 12.162140 0.997310 0.000000 0.000000 -11.001204 0.000000 0.000000 -10.002190 0.000000 0.000000 4.997208 0.000000 0.000000 -7.001521 0.000000 0.000000 9.980679 -5.363872 9.986310 -70.017166 34.075340 -5.429511 -41.714588 2.830207 9.954630 11.173583 14.325978 30.359137 -10.000460 9.227766 7.849796 65.349403 -37.487473 -12.278965 43.352070 2.022954 10.008915 -10.580088 -11.663085 35.310459 -27.992620 15.153358 0.773206 35.019253 0.883482 0.165147 -6.578186 0.184447 -26.530426 -27.945114 -15.198945 -0.876029 35.274643 -0.875786 -0.067444 -6.446355 0.091708 26.561253 
